HIERARCHY
ROOT Hips
{
	OFFSET 0.00000 0.00000 0.00000
	CHANNELS 6 Xposition Yposition Zposition Zrotation Yrotation Xrotation 
	JOINT LHipJoint
	{
		OFFSET 0 0 0
		CHANNELS 3 Zrotation Yrotation Xrotation
		JOINT LeftUpLeg
		{
			OFFSET 1.44361 -1.63093 0.70831
			CHANNELS 3 Zrotation Yrotation Xrotation
			JOINT LeftLeg
			{
				OFFSET 2.20103 -6.04728 0.00000
				CHANNELS 3 Zrotation Yrotation Xrotation
				JOINT LeftFoot
				{
					OFFSET 2.54154 -6.98283 0.00000
					CHANNELS 3 Zrotation Yrotation Xrotation
					JOINT LeftToeBase
					{
						OFFSET 0.05971 -0.16406 1.77582
						CHANNELS 3 Zrotation Yrotation Xrotation
						End Site
						{
							OFFSET 0.00000 -0.00000 0.90832
						}
					}
				}
			}
		}
	}
	JOINT RHipJoint
	{
		OFFSET 0 0 0
		CHANNELS 3 Zrotation Yrotation Xrotation
		JOINT RightUpLeg
		{
			OFFSET -1.65838 -1.63093 0.70830
			CHANNELS 3 Zrotation Yrotation Xrotation
			JOINT RightLeg
			{
				OFFSET -2.26926 -6.23475 0.00000
				CHANNELS 3 Zrotation Yrotation Xrotation
				JOINT RightFoot
				{
					OFFSET -2.34808 -6.45129 0.00000
					CHANNELS 3 Zrotation Yrotation Xrotation
					JOINT RightToeBase
					{
						OFFSET -0.18633 -0.51195 1.68539
						CHANNELS 3 Zrotation Yrotation Xrotation
						End Site
						{
							OFFSET -0.00000 -0.00000 0.88927
						}
					}
				}
			}
		}
	}
	JOINT LowerBack
	{
		OFFSET 0 0 0
		CHANNELS 3 Zrotation Yrotation Xrotation
		JOINT Spine
		{
			OFFSET -0.10393 2.01691 0.06920
			CHANNELS 3 Zrotation Yrotation Xrotation
			JOINT Spine1
			{
				OFFSET 0.04092 2.01302 -0.05283
				CHANNELS 3 Zrotation Yrotation Xrotation
				JOINT Neck
				{
					OFFSET 0 0 0
					CHANNELS 3 Zrotation Yrotation Xrotation
					JOINT Neck1
					{
						OFFSET -0.02870 1.58978 -0.03113
						CHANNELS 3 Zrotation Yrotation Xrotation
						JOINT Head
						{
							OFFSET 0.11532 1.54326 -0.29195
							CHANNELS 3 Zrotation Yrotation Xrotation
							End Site
							{
								OFFSET 0.04056 1.59999 -0.09535
							}
						}
					}
				}
				JOINT LeftShoulder
				{
					OFFSET 0 0 0
					CHANNELS 3 Zrotation Yrotation Xrotation
					JOINT LeftArm
					{
						OFFSET 3.30641 1.15764 0.01104
						CHANNELS 3 Zrotation Yrotation Xrotation
						JOINT LeftForeArm
						{
							OFFSET 4.63208 -0.00000 0.00000
							CHANNELS 3 Zrotation Yrotation Xrotation
							JOINT LeftHand
							{
								OFFSET 3.41924 -0.00000 -0.00000
								CHANNELS 3 Zrotation Yrotation Xrotation
								JOINT LeftFingerBase
								{
									OFFSET 0 0 0
									CHANNELS 3 Zrotation Yrotation Xrotation
									JOINT LeftHandIndex1
									{
										OFFSET 0.62537 -0.00000 -0.00000
										CHANNELS 3 Zrotation Yrotation Xrotation
										End Site
										{
											OFFSET 0.50419 -0.00000 -0.00000
										}
									}
								}
								JOINT LThumb
								{
									OFFSET 0 0 0
									CHANNELS 3 Zrotation Yrotation Xrotation
									End Site
									{
										OFFSET 0.51189 -0.00000 0.51189
									}
								}
							}
						}
					}
				}
				JOINT RightShoulder
				{
					OFFSET 0 0 0
					CHANNELS 3 Zrotation Yrotation Xrotation
					JOINT RightArm
					{
						OFFSET -3.78081 1.02180 -0.16609
						CHANNELS 3 Zrotation Yrotation Xrotation
						JOINT RightForeArm
						{
							OFFSET -4.40640 -0.00000 -0.00000
							CHANNELS 3 Zrotation Yrotation Xrotation
							JOINT RightHand
							{
								OFFSET -3.44675 -0.00000 0.00000
								CHANNELS 3 Zrotation Yrotation Xrotation
								JOINT RightFingerBase
								{
									OFFSET 0 0 0
									CHANNELS 3 Zrotation Yrotation Xrotation
									JOINT RightHandIndex1
									{
										OFFSET -0.51367 -0.00000 -0.00000
										CHANNELS 3 Zrotation Yrotation Xrotation
										End Site
										{
											OFFSET -0.41414 -0.00000 -0.00000
										}
									}
								}
								JOINT RThumb
								{
									OFFSET 0 0 0
									CHANNELS 3 Zrotation Yrotation Xrotation
									End Site
									{
										OFFSET -0.42046 -0.00000 0.42046
									}
								}
							}
						}
					}
				}
			}
		}
	}
}
MOTION
Frames: 5
Frame Time: .0083333
10.1557 16.3139 -7.6684 0 0 0 0 0 0 -21 0 0 0 0 0 0 0 0 0 0 0 0 0 0 21 0 0 0 0 0 0 0 0 0 0 0 0 0 0 0 0 0 0 0 0 0 0 -16 0 0 21 0 0 11 0 0 0 -8 0 0 0 0 0 0 0 0 0 0 0 0 0 0 0 0 0 0 0 0 8 0 0 0 0 0 0 0 0 0 0 0 0 0 0 0 0 0
10.1557 16.3139 -7.6684 -0.2812 -4.4038 10.0178 0.0000 0.0000 0.0000 -17.8374 -6.6884 -2.1804 0.0456 1.3788 3.7917 0.3941 -3.4147 -11.1792 8.4730 -16.4564 -54.2490 0.0000 0.0000 0.0000 14.0105 5.1501 -2.3194 -0.0420 -1.3226 3.6370 -0.3678 -0.0292 -11.4682 -3.5210 11.4941 -33.9649 -7.1285 -1.2879 -9.8243 0.4407 -0.9590 -0.9605 4.3493 -0.6159 4.6377 -6.9467 -10.2125 -4.2739 7.9564 -13.9059 7.3924 2.7550 -6.7693 3.9465 0.0000 -0.0000 0.0000 -82.7860 6.3692 32.5081 36.2309 -45.6713 -15.6874 -0.0000 -0.0000 28.4441 32.4342 -19.5111 -11.9824 -7.1250 0.0000 -0.0000 2.6161 7.2256 -2.2687 0.0000 -0.0000 0.0000 84.7024 -9.1921 27.4056 -45.3355 50.9318 -22.4989 0.0000 0.0000 31.6942 -21.9494 -41.1830 14.8616 7.1250 -0.0000 -0.0000 23.2767 -72.1322 -15.2498
10.1380 16.3119 -7.6637 -0.4349 -4.2965 10.1151 0.0000 0.0000 0.0000 -17.5502 -6.7902 -2.2760 0.0472 1.4025 3.8571 0.3962 -3.4943 -11.2051 8.3681 -16.3835 -53.8781 0.0000 0.0000 0.0000 14.3098 5.4054 -2.3275 -0.0439 -1.3522 3.7183 -0.3709 -0.2730 -11.6066 -3.6220 11.6396 -34.4688 -6.9023 -1.2969 -9.9463 0.4660 -0.9893 -1.0156 4.2430 -0.6256 4.6482 -6.8755 -10.1804 -4.4616 7.8560 -13.8663 7.6605 2.7014 -6.7432 4.0436 -0.0000 -0.0000 0.0000 -83.1143 4.7929 31.1998 30.0823 -40.9639 -11.4636 -0.0000 -0.0000 28.2475 29.2324 -18.6084 -10.1248 -7.1250 0.0000 -0.0000 0.6943 8.8825 -0.5788 -0.0000 -0.0000 0.0000 85.0917 -8.2423 25.6085 -39.4740 47.7552 -18.0489 0.0000 0.0000 31.8547 -20.6816 -41.7078 14.0990 7.1250 -0.0000 -0.0000 25.8200 -72.1427 -16.9828
10.1223 16.3097 -7.6556 -0.4635 -4.2789 10.2002 0.0000 0.0000 0.0000 -17.4437 -6.8292 -2.3243 0.0475 1.4065 3.8679 0.3931 -3.5905 -11.1570 8.1934 -16.2597 -53.2562 0.0000 0.0000 0.0000 14.4364 5.6340 -2.3635 -0.0478 -1.4103 3.8784 -0.3818 -0.3769 -11.8142 -3.6025 11.6117 -34.3719 -6.7777 -1.2336 -10.1618 0.4284 -0.9003 -1.0115 4.1438 -0.5826 4.7591 -6.5152 -10.2596 -4.8469 7.4339 -13.9588 7.9773 2.4890 -6.7822 4.1544 -0.0000 0.0000 0.0000 -83.3719 3.0300 29.7345 24.3440 -35.5259 -7.9055 -0.0000 -0.0000 29.0650 27.3724 -18.5598 -9.3579 -7.1250 0.0000 -0.0000 -0.5017 9.2694 0.4144 -0.0000 0.0000 0.0000 85.3965 -7.3721 23.7117 -34.2887 44.2975 -14.3143 0.0000 0.0000 32.5278 -19.9686 -42.2274 13.7229 7.1250 -0.0000 -0.0000 27.6831 -72.3287 -18.3699
10.1100 16.3160 -7.6648 -0.1749 -4.2807 10.3377 0.0000 0.0000 0.0000 -17.6834 -6.9568 -2.6757 0.0536 1.4936 4.1082 0.3896 -3.6625 -11.1035 8.1029 -16.1944 -52.9326 0.0000 0.0000 0.0000 14.1212 5.7932 -2.7307 -0.0564 -1.5331 4.2171 -0.3923 -0.3895 -11.9794 -3.5522 11.5394 -34.1214 -7.0321 -1.2273 -10.1590 0.3568 -0.8639 -1.1192 4.2180 -0.5621 4.6422 -6.9250 -10.1413 -4.2190 8.0189 -13.8211 7.3973 2.7797 -6.7258 3.9356 0.0000 -0.0000 0.0000 -83.7500 1.3473 27.5040 19.1334 -29.5841 -5.0965 -0.0000 -0.0000 31.0053 23.3125 -16.9964 -7.1794 -7.1250 0.0000 -0.0000 -3.0149 11.5901 2.3510 0.0000 -0.0000 0.0000 85.4252 -6.7205 22.2378 -29.8767 40.7875 -11.3290 0.0000 0.0000 32.2212 -20.6518 -43.5568 14.5590 7.1250 -0.0000 -0.0000 29.6319 -73.6535 -20.5488
